<svg width="142" height="142" viewBox="0 0 142 142" fill="none" xmlns="http://www.w3.org/2000/svg">
<path d="M71 130.167V76.9167" stroke="white" stroke-width="5" stroke-linecap="round" stroke-linejoin="round"/>
<path d="M89.7558 13.0758C91.2294 12.2519 92.8896 11.8193 94.5779 11.8193C96.2662 11.8193 97.9264 12.2519 99.4 13.0758L124.25 27.0392C126.01 28.0343 127.474 29.479 128.493 31.2254C129.512 32.9718 130.048 34.9573 130.048 36.9792C130.048 39.001 129.512 40.9865 128.493 42.7329C127.474 44.4793 126.01 45.924 124.25 46.9192L52.185 87.5075C50.707 88.3505 49.0348 88.7939 47.3333 88.7939C45.6318 88.7939 43.9596 88.3505 42.4817 87.5075L17.75 73.5442C15.9901 72.549 14.5259 71.1043 13.5072 69.3579C12.4885 67.6115 11.9517 65.626 11.9517 63.6042C11.9517 61.5823 12.4885 59.5968 13.5072 57.8504C14.5259 56.104 15.9901 54.6593 17.75 53.6642L89.7558 13.0758Z" stroke="white" stroke-width="5" stroke-linecap="round" stroke-linejoin="round"/>
<path d="M118.333 76.9167V92.7638M92.764 121.307C91.1375 122.152 72.8332 130.152 71.0001 130.152C69.167 130.152 67.3608 129.71 65.7342 128.865L30.2343 110.642C28.2527 109.612 26.5921 108.057 25.4339 106.148C24.2758 104.238 23.6644 102.047 23.6668 99.8142V76.9167" stroke="white" stroke-width="5" stroke-linecap="round" stroke-linejoin="round"/>
<path d="M124.25 73.5442C126.01 72.549 127.474 71.1044 128.493 69.358C129.512 67.6115 130.048 65.626 130.048 63.6042C130.048 61.5823 129.512 59.5968 128.493 57.8504C127.474 56.104 126.01 54.6594 124.25 53.6642L52.2442 13.0167C50.7761 12.176 49.1138 11.7337 47.4221 11.7337C45.7304 11.7337 44.068 12.176 42.6 13.0167L17.75 27.0392C15.9901 28.0344 14.5259 29.479 13.5072 31.2254C12.4885 32.9718 11.9517 34.9573 11.9517 36.9792C11.9517 39.001 12.4885 40.9865 13.5072 42.733C14.5259 44.4794 15.9901 45.924 17.75 46.9192L89.815 87.5075C91.2823 88.3505 92.9449 88.7941 94.6371 88.7941C96.3293 88.7941 97.9919 88.3505 99.4592 87.5075L124.25 73.5442Z" stroke="white" stroke-width="5" stroke-linecap="round" stroke-linejoin="round"/>
<path d="M115.598 102.04V115.42L124.874 119.879" stroke="white" stroke-width="5" stroke-linecap="round" stroke-linejoin="round"/>
<path d="M115.598 138.432C128.209 138.432 138.432 128.209 138.432 115.598C138.432 102.987 128.209 92.7638 115.598 92.7638C102.987 92.7638 92.7639 102.987 92.7639 115.598C92.7639 128.209 102.987 138.432 115.598 138.432Z" stroke="white" stroke-width="5" stroke-linecap="round" stroke-linejoin="round"/>
</svg>
